<?xml version="1.0" encoding="utf-8"?>
<!-- Generator: Adobe Illustrator 16.0.0, SVG Export Plug-In . SVG Version: 6.00 Build 0)  -->
<!DOCTYPE svg PUBLIC "-//W3C//DTD SVG 1.1//EN" "http://www.w3.org/Graphics/SVG/1.1/DTD/svg11.dtd">
<svg version="1.1" id="Layer_1" xmlns="http://www.w3.org/2000/svg" xmlns:xlink="http://www.w3.org/1999/xlink" x="0px" y="0px"
	 width="800px" height="800px" viewBox="0 0 800 800" enable-background="new 0 0 800 800" xml:space="preserve">
<path d="M316.712,676.478l-19.28-50.586h-29.749l32.336,75.128c0.595,1.291,0.885,2.641,0.885,4.121
	c0,1.932-0.643,3.656-1.965,5.271c-1.219,1.489-2.918,2.253-6.04,2.707h-15.883l-0.005,20.829h16.699
	c8.916,0,15.444-1.356,20.543-4.271c5.024-2.867,8.986-7.675,11.773-14.283l38.37-89.503h-29.064L316.712,676.478z"/>
<polygon points="489.199,625.892 473.834,674.99 459.599,625.892 433.249,625.892 419.353,675.073 404,625.892 374.499,625.892 
	404.083,706.773 431.896,706.773 446.112,658.162 460.976,706.773 488.604,706.773 518.005,625.892 "/>
<path d="M261.975,630.43c-3.05-2.327-6.746-4.041-10.986-5.093c-4.153-1.026-8.709-1.548-13.546-1.548
	c-6.498,0-12.217,1.387-16.995,4.118c-3.892,2.22-7.161,4.765-9.744,7.583c-2.533-4.04-5.989-6.972-10.303-8.729
	c-4.856-1.973-10.275-2.972-16.107-2.972c-6.104,0-11.615,1.166-16.381,3.465c-3.613,1.745-6.859,4.059-9.686,6.9v-8.263h-26.464
	v80.882h27.847v-46.671c0-3.508,0.575-6.355,1.707-8.459c1.145-2.116,2.521-3.746,4.088-4.842c1.611-1.125,3.287-1.9,4.982-2.303
	c1.768-0.419,3.186-0.632,4.213-0.632c3.61,0,6.339,0.511,8.107,1.514c1.729,0.986,2.923,2.241,3.649,3.836
	c0.777,1.712,1.224,3.608,1.329,5.637c0.113,2.305,0.171,4.575,0.171,6.749v45.171h27.847v-44.87c0-2.306,0.195-4.612,0.582-6.854
	c0.363-2.116,1.097-4.03,2.179-5.687c1.061-1.618,2.552-2.951,4.429-3.962c1.89-1.017,4.454-1.533,7.622-1.533
	c3.189,0,5.715,0.449,7.5,1.33c1.734,0.863,3.052,2.021,3.918,3.441c0.904,1.481,1.467,3.271,1.672,5.322
	c0.225,2.237,0.34,4.655,0.34,7.19v45.622h27.851v-53.577c0-5.211-0.865-9.758-2.571-13.516
	C267.5,635.896,265.062,632.784,261.975,630.43"/>
<path d="M583.947,628.046c-3.928-1.651-8.328-2.776-13.077-3.344c-9.8-1.172-19.502-1.178-28.95,0.463
	c-5.044,0.874-9.655,2.363-13.707,4.432c-4.123,2.104-7.57,4.936-10.246,8.415c-2.727,3.547-4.293,8.037-4.661,13.346l-0.12,1.745
	h27.795l0.159-1.456c0.405-3.724,1.751-6.281,4.113-7.816c2.49-1.619,6.035-2.439,10.535-2.439c2.092,0,4.088,0.121,5.933,0.36
	c1.709,0.225,3.215,0.673,4.482,1.335c1.191,0.616,2.119,1.461,2.841,2.583c0.689,1.075,1.04,2.623,1.04,4.602l0.011,5.31
	c-9.502,0.323-27.104,3.158-27.854,3.28c-3.729,0.506-7.478,1.197-11.145,2.054c-3.787,0.886-7.208,2.238-10.168,4.021
	c-3.035,1.824-5.547,4.3-7.466,7.361c-1.945,3.103-2.931,7.058-2.931,11.753c0,4.256,0.851,8,2.529,11.131
	c1.68,3.125,4.038,5.743,7.007,7.78c2.919,2.004,6.361,3.499,10.231,4.442c3.808,0.928,7.957,1.397,12.335,1.397
	c5.647,0,11.263-0.726,16.688-2.155c4.359-1.15,8.316-3.006,11.804-5.531l0.002,5.66l26.804-0.001v-59.21
	c0-5.08-1.354-9.248-4.021-12.389C591.333,632.139,587.98,629.739,583.947,628.046 M547.051,674.292
	c1.455-0.411,2.711-0.768,4.564-1.168c2.226-0.48,11.868-2.165,18.469-2.43v4.496c0,1.1-0.14,2.638-0.414,4.571
	c-0.253,1.749-0.957,3.522-2.092,5.269c-1.113,1.709-2.889,3.217-5.276,4.48c-2.411,1.27-5.941,1.914-10.494,1.914
	c-1.865,0-3.699-0.146-5.451-0.431c-1.659-0.27-3.116-0.742-4.331-1.4c-1.146-0.623-2.022-1.44-2.68-2.505
	c-0.642-1.031-0.968-2.358-0.968-3.943c0-1.681,0.326-3.059,0.97-4.095c0.682-1.101,1.562-1.987,2.694-2.713
	c1.185-0.758,2.607-1.373,4.234-1.827L547.051,674.292z"/>
<rect x="605.237" y="596.313" width="27.848" height="110.46"/>
<rect x="640.391" y="596.313" width="27.848" height="110.46"/>
<path d="M268.84,587.562c-70.813,0-128.424-56.085-128.424-125.023s57.611-125.023,128.424-125.023
	c104.142,0,160.544,103.718,162.893,108.134l8.731,16.404l-8.335,16.61C429.897,483.109,376.243,587.562,268.84,587.562
	 M268.84,409.412c-31.17,0-56.527,23.833-56.527,53.127c0,29.295,25.357,53.128,56.527,53.128c42.904,0,73.394-32.279,88.415-52.765
	C341.684,442.154,310.507,409.412,268.84,409.412"/>
<path d="M531.16,587.563c-104.143,0-160.544-103.719-162.893-108.134l-8.731-16.404l8.335-16.61
	c2.231-4.446,55.886-108.899,163.289-108.899c70.812,0,128.424,56.086,128.424,125.023
	C659.584,531.478,601.973,587.563,531.16,587.563 M442.745,462.177c15.571,20.748,46.748,53.49,88.415,53.49
	c31.17,0,56.527-23.834,56.527-53.128s-25.357-53.128-56.527-53.128C488.256,409.411,457.766,441.691,442.745,462.177"/>
<rect x="364.288" y="73.118" width="71.423" height="399.373"/>
<rect x="217.212" y="239.986" width="365.576" height="71.423"/>
<rect x="292.292" y="142.457" width="215.415" height="71.423"/>
<rect fill="none" width="800" height="800"/>
</svg>
